<svg width="50" height="50" viewBox="0 0 50 50" fill="none" xmlns="http://www.w3.org/2000/svg">
<g clip-path="url(#clip0_71_93)">
<path d="M7.575 23.5271C7.18443 23.9178 6.96503 24.4476 6.96503 25.0001C6.96503 25.5525 7.18443 26.0823 7.575 26.473L19.3604 38.2584C19.5526 38.4574 19.7825 38.6161 20.0367 38.7253C20.2908 38.8345 20.5642 38.8919 20.8408 38.8943C21.1175 38.8967 21.3918 38.844 21.6478 38.7393C21.9039 38.6345 22.1365 38.4798 22.3321 38.2842C22.5277 38.0886 22.6824 37.856 22.7871 37.6C22.8919 37.3439 22.9446 37.0696 22.9422 36.793C22.9398 36.5163 22.8823 36.243 22.7731 35.9888C22.6639 35.7346 22.5052 35.5047 22.3062 35.3126L14.0771 27.0834H41.6667C42.2192 27.0834 42.7491 26.8639 43.1398 26.4732C43.5305 26.0825 43.75 25.5526 43.75 25.0001C43.75 24.4475 43.5305 23.9176 43.1398 23.5269C42.7491 23.1362 42.2192 22.9167 41.6667 22.9167H14.0771L22.3062 14.6876C22.6857 14.2946 22.8957 13.7684 22.891 13.2221C22.8862 12.6759 22.6671 12.1534 22.2809 11.7671C21.8946 11.3808 21.3721 11.1617 20.8258 11.157C20.2796 11.1522 19.7533 11.3622 19.3604 11.7417L7.575 23.5271Z" fill="#6B38E3"/>
</g>
<defs>
<clipPath id="clip0_71_93">
<rect width="50" height="50" fill="white" transform="matrix(0 -1 1 0 0 50)"/>
</clipPath>
</defs>
</svg>
