<svg width="50" height="50" viewBox="0 0 50 50" fill="none" xmlns="http://www.w3.org/2000/svg">
<path d="M12.5 6.25H33.3334V33.3333L18.75 47.9167L16.1459 45.3125C15.9028 45.0694 15.7028 44.7396 15.5459 44.3229C15.3889 43.9062 15.3112 43.5069 15.3125 43.125V42.3958L17.6042 33.3333H6.25004C5.13893 33.3333 4.16671 32.9167 3.33337 32.0833C2.50004 31.25 2.08337 30.2778 2.08337 29.1667V25C2.08337 24.7569 2.10907 24.4965 2.16046 24.2188C2.21185 23.941 2.29032 23.6806 2.39587 23.4375L8.64587 8.75C8.95837 8.05556 9.47921 7.46528 10.2084 6.97917C10.9375 6.49306 11.7014 6.25 12.5 6.25ZM37.5 33.3333V6.25H45.8334V33.3333H37.5Z" fill="white"/>
</svg>
