<svg width="29" height="29" viewBox="0 0 29 29" fill="none" xmlns="http://www.w3.org/2000/svg">
<path d="M19.8232 3.54883C17.7649 3.54883 15.7894 4.507 14.5 6.02115C13.2107 4.507 11.2352 3.54883 9.17687 3.54883C5.53346 3.54883 2.67078 6.41151 2.67078 10.0549C2.67078 14.5264 6.69273 18.1698 12.7848 23.7059L14.5 25.2555L16.2153 23.6941C22.3074 18.1698 26.3293 14.5264 26.3293 10.0549C26.3293 6.41151 23.4666 3.54883 19.8232 3.54883ZM14.6183 21.9433L14.5 22.0616L14.3818 21.9433C8.75102 16.8449 5.03663 13.4736 5.03663 10.0549C5.03663 7.68907 6.81102 5.91468 9.17687 5.91468C10.9986 5.91468 12.773 7.08578 13.3999 8.70639H15.612C16.2271 7.08578 18.0015 5.91468 19.8232 5.91468C22.1891 5.91468 23.9635 7.68907 23.9635 10.0549C23.9635 13.4736 20.2491 16.8449 14.6183 21.9433Z" fill="#5738CF"/>
</svg>
