<svg width="50" height="50" viewBox="0 0 50 50" fill="none" xmlns="http://www.w3.org/2000/svg">
<path d="M35.4166 45.8333H14.5833V18.75L29.1666 4.16663L31.7708 6.77079C32.0139 7.01385 32.2139 7.34371 32.3708 7.76038C32.5278 8.17704 32.6055 8.57635 32.6041 8.95829V9.68746L30.3125 18.75H41.6666C42.7778 18.75 43.75 19.1666 44.5833 20C45.4166 20.8333 45.8333 21.8055 45.8333 22.9166V27.0833C45.8333 27.3263 45.8076 27.5868 45.7562 27.8645C45.7048 28.1423 45.6264 28.4027 45.5208 28.6458L39.2708 43.3333C38.9583 44.0277 38.4375 44.618 37.7083 45.1041C36.9791 45.5902 36.2153 45.8333 35.4166 45.8333ZM10.4166 18.75V45.8333H2.08331V18.75H10.4166Z" fill="white"/>
</svg>
