<svg width="30" height="30" viewBox="0 0 30 30" fill="none" xmlns="http://www.w3.org/2000/svg">
<path d="M5.80757 2.15667L26.3823 13.9246C26.5697 14.032 26.7257 14.1881 26.8343 14.3769C26.9428 14.5657 27 14.7805 27 14.9992C27 15.2179 26.9428 15.4327 26.8343 15.6215C26.7257 15.8104 26.5697 15.9665 26.3823 16.0738L5.80757 27.8418C5.6229 27.9473 5.41426 28.0019 5.20243 27.9999C4.99059 27.998 4.78293 27.9398 4.60012 27.8309C4.41731 27.7221 4.26572 27.5665 4.16044 27.3796C4.05515 27.1927 3.99984 26.981 4 26.7657V3.2328C4.0001 3.01755 4.05561 2.80607 4.161 2.61939C4.2664 2.4327 4.41801 2.27731 4.60078 2.16866C4.78354 2.06001 4.9911 2.00188 5.20281 2.00004C5.41452 1.99821 5.62301 2.0512 5.80757 2.15667Z" fill="white"/>
</svg>
