<svg width="28" height="28" viewBox="0 0 28 28" fill="none" xmlns="http://www.w3.org/2000/svg">
<path d="M13.6399 24.4859C12.2705 24.4859 10.988 24.2259 9.79242 23.7059C8.59684 23.1859 7.55608 22.4829 6.67016 21.597C5.78425 20.7111 5.08128 19.6703 4.56127 18.4747C4.04126 17.2791 3.78089 15.9963 3.78016 14.6261C3.77943 13.256 4.0398 11.9735 4.56127 10.7786C5.08274 9.58377 5.78534 8.54302 6.66907 7.65637C7.5528 6.76972 8.59355 6.06676 9.79133 5.54748C10.9891 5.0282 12.272 4.76782 13.6399 4.76636C15.0079 4.7649 16.2907 5.02527 17.4885 5.54748C18.6863 6.06968 19.727 6.77264 20.6108 7.65637C21.4945 8.5401 22.1975 9.58085 22.7197 10.7786C23.2419 11.9764 23.5019 13.2589 23.4997 14.6261C23.4975 15.9934 23.2375 17.2762 22.7197 18.4747C22.2019 19.6732 21.4989 20.714 20.6108 21.597C19.7227 22.48 18.6819 23.1829 17.4885 23.7059C16.2951 24.2288 15.0123 24.4888 13.6399 24.4859ZM16.7074 19.2274L18.2411 17.6936L14.7355 14.1879V9.14848H12.5444V15.0643L16.7074 19.2274ZM6.62853 2.95874L8.16228 4.49248L3.50628 9.14848L1.97253 7.61474L6.62853 2.95874ZM20.6513 2.95874L25.3073 7.61474L23.7736 9.14848L19.1176 4.49248L20.6513 2.95874Z" fill="white"/>
</svg>
